<?xml version="1.0" encoding="UTF-8" standalone="yes"?>
<svg xmlns="http://www.w3.org/2000/svg" xmlns:xlink="http://www.w3.org/1999/xlink" width="661.254pt" height="210.910pt" version="1.1" viewBox="-175.752 675.248 661.254 210.910">
  <!--
	Exported with Concepts: Smarter Sketching
	Version: 1059 on iOS 15.6
	https://concepts.app/
	-->
  <title>Phytagoras</title>
  <desc>Drawing exported from Concepts: Smarter Sketching</desc>
  <defs></defs>
  <g id="Stift" opacity="1.000">
    <path id="STROKE_3c375620-5072-4ebb-9165-76eb6f0b6191" opacity="1.000" fill="none" stroke="#f7f5e9" stroke-width="6.145" stroke-opacity="1.000" stroke-linecap="round" stroke-linejoin="round" d="M -119.917 698.046 Q -119.276 699.078 -119.380 698.937 Q -119.208 699.073 -119.177 700.808 Q -119.146 702.543 -119.962 704.931 Q -120.777 707.318 -121.477 709.919 Q -122.176 712.519 -122.198 718.759 Q -122.220 724.998 -122.510 734.936 Q -122.800 744.874 -123.343 750.941 Q -123.886 757.009 -124.401 767.422 Q -124.915 777.835 -125.036 783.915 Q -125.156 789.995 -125.269 799.026 Q -125.382 808.056 -125.628 813.218 Q -125.874 818.380 -126.096 820.398 Q -126.317 822.417 -126.328 823.168 Q -126.339 823.919 -126.333 823.850 Q -126.327 823.780 -126.330 823.786 Q -126.332 823.791 -126.331 824.034 Q -126.330 824.276 -126.331 824.211 Q -126.332 824.146 -126.335 824.626 Q -126.338 825.105 -126.303 827.010 Q -126.248 827.054 -123.724 826.915 Q -121.200 826.775 -116.013 828.489 Q -110.825 830.204 -104.882 831.090 Q -98.938 831.976 -94.071 832.131 Q -89.204 832.286 -79.197 833.122 Q -69.190 833.958 -63.432 834.351 Q -57.674 834.744 -50.161 834.705 Q -42.648 834.665 -38.654 834.407 Q -34.659 834.149 -27.248 834.272 Q -19.837 834.395 -14.391 834.703 Q -8.944 835.011 -1.856 835.694 Q 5.232 836.377 9.538 836.236 Q 13.844 836.095 18.712 836.141 Q 23.580 836.188 26.219 836.473 Q 28.859 836.757 32.886 837.078 Q 36.914 837.399 46.714 837.533 Q 56.514 837.667 63.307 838.089 Q 70.099 838.511 79.965 838.481 Q 89.830 838.451 94.688 838.454 Q 99.546 838.457 102.101 838.023 Q 104.656 837.588 108.392 837.892 Q 112.129 838.195 117.021 838.527 Q 116.984 838.527 116.875 838.527 Q 116.601 838.800 129.464 837.566 L 129.464 837.534 Q 128.823 837.534 128.990 837.534 Q 128.266 837.512 128.344 837.426 Q 127.568 837.291 124.096 834.690 Q 120.624 832.088 116.504 829.040 Q 112.384 825.993 109.500 823.413 Q 106.616 820.833 102.561 817.732 Q 98.506 814.632 95.268 812.712 Q 92.031 810.792 88.676 807.765 Q 85.322 804.737 81.242 801.506 Q 77.162 798.275 73.009 796.117 Q 68.856 793.959 63.828 790.693 Q 58.800 787.427 55.938 785.614 Q 53.076 783.800 46.886 779.819 Q 40.696 775.838 32.350 771.148 Q 24.004 766.459 11.622 761.107 Q -0.761 755.754 -7.059 753.058 Q -13.357 750.362 -16.188 749.001 Q -19.019 747.640 -22.650 745.305 Q -26.281 742.971 -28.926 741.914 Q -31.570 740.858 -38.673 737.293 Q -45.776 733.728 -50.764 731.222 Q -55.752 728.716 -58.527 727.435 Q -61.302 726.153 -66.805 724.528 Q -72.307 722.904 -75.995 721.570 Q -79.683 720.237 -82.095 719.072 Q -84.507 717.907 -86.422 716.641 Q -88.336 715.376 -94.544 713.730 Q -100.752 712.084 -103.616 711.524 Q -106.480 710.964 -110.152 709.398 Q -113.824 707.833 -116.258 707.266 Q -118.692 706.700 -120.701 705.860 Q -119.876 705.863 -119.881 705.828 Q -119.428 705.758 -118.443 705.494 Q -117.458 705.230 -116.930 704.994 "></path>
    <path id="STROKE_78db45a6-2622-4f09-b41c-d5cb5a8e7c4d" opacity="1.000" fill="none" stroke="#f7f5e9" stroke-width="2.182" stroke-opacity="1.000" stroke-linecap="round" stroke-linejoin="round" d="M -152.220 759.410 Q -151.574 760.300 -151.837 760.008 Q -151.837 761.265 -151.837 761.103 Q -151.837 762.704 -151.837 762.102 Q -151.837 761.500 -151.837 772.785 Q -151.573 771.249 -152.294 768.091 Q -153.016 764.932 -153.833 763.505 Q -154.651 762.079 -155.449 761.114 Q -156.247 760.150 -157.878 759.655 Q -159.509 759.160 -161.412 760.021 Q -163.315 760.882 -164.540 762.370 Q -165.765 763.857 -166.551 765.981 Q -167.336 768.106 -166.777 769.934 Q -166.217 771.763 -164.585 773.448 Q -162.953 775.133 -160.334 775.687 Q -157.715 776.242 -154.635 775.233 Q -151.555 774.223 -149.788 773.374 Q -148.020 772.524 -147.519 772.263 "></path>
    <path id="STROKE_ccc05962-e18f-4490-bea4-8070af64e124" opacity="1.000" fill="none" stroke="#f7f5e9" stroke-width="3.302" stroke-opacity="1.000" stroke-linecap="round" stroke-linejoin="round" d="M -36.675 847.727 Q -35.471 847.764 -35.017 847.333 Q -35.178 847.497 -35.287 849.368 Q -35.396 851.239 -35.375 854.818 Q -35.354 858.398 -32.503 870.367 Q -32.560 870.020 -32.466 870.181 Q -32.371 870.343 -32.592 869.812 Q -32.812 869.282 -33.338 868.170 Q -33.864 867.059 -33.976 866.452 Q -34.088 865.845 -34.095 865.709 Q -34.102 865.573 -34.231 863.676 Q -34.360 861.778 -33.876 860.679 Q -33.392 859.579 -32.610 859.228 Q -31.828 858.878 -30.075 858.710 Q -28.323 858.542 -26.716 860.408 Q -25.109 862.273 -23.702 864.892 Q -22.295 867.512 -22.005 869.802 Q -21.715 872.091 -21.766 873.494 Q -21.817 874.896 -22.273 875.386 Q -22.730 875.877 -23.416 876.171 Q -24.101 876.466 -25.083 876.542 Q -26.064 876.617 -27.160 875.935 Q -28.257 875.254 -29.616 873.912 Q -30.975 872.571 -31.575 868.389 Q -32.175 864.207 -32.175 863.749 "></path>
    <path id="STROKE_925ae18e-500f-4328-93c1-fb1c8ba3bf1c" opacity="1.000" fill="none" stroke="#f7f5e9" stroke-width="3.705" stroke-opacity="1.000" stroke-linecap="round" stroke-linejoin="round" d="M 1.130 717.046 Q 1.869 716.575 2.058 716.175 Q 2.246 715.774 2.239 715.387 Q 2.232 715.000 2.251 714.896 Q 2.270 714.792 2.324 714.432 Q 2.378 714.072 2.121 713.558 Q 1.864 713.043 1.596 712.794 Q 1.329 712.544 0.440 712.524 Q -0.449 712.503 -0.898 712.602 Q -1.348 712.701 -1.523 712.802 Q -1.699 712.904 -2.090 713.126 Q -2.482 713.348 -2.934 713.806 Q -3.385 714.265 -4.080 714.891 Q -4.775 715.517 -6.024 717.622 Q -7.272 719.726 -7.424 723.365 Q -7.576 727.003 -7.650 728.687 Q -7.724 730.370 -7.303 732.123 Q -6.881 733.876 -4.205 734.613 Q -1.529 735.350 -0.107 735.252 Q 1.315 735.154 3.308 736.576 Q 5.302 737.999 5.703 738.234 "></path>
    <path id="STROKE_d602bb4d-1ee0-455d-96ab-6e3744bebf91" opacity="1.000" fill="none" stroke="#f7f5e9" stroke-width="3.160" stroke-opacity="1.000" stroke-linecap="round" stroke-linejoin="round" d="M 220.650 707.972 Q 220.750 707.972 221.379 708.080 Q 220.529 708.771 219.518 710.701 Q 218.507 712.630 218.506 714.164 Q 218.505 715.698 218.517 716.531 Q 218.530 717.365 218.606 718.608 Q 218.681 719.850 219.393 724.134 Q 219.420 724.134 219.448 724.134 Q 219.347 723.990 219.401 721.109 Q 219.454 718.227 219.483 716.171 Q 219.512 714.114 219.283 712.905 Q 219.055 711.697 217.260 710.715 Q 215.464 709.734 213.222 710.785 Q 210.980 711.836 210.084 712.794 Q 209.189 713.752 208.322 714.823 Q 207.455 715.894 207.023 717.307 Q 206.590 718.720 206.419 719.817 Q 206.249 720.913 206.957 721.642 Q 207.665 722.372 208.539 722.856 Q 209.412 723.340 210.109 723.690 Q 210.807 724.040 211.923 724.392 Q 213.040 724.744 214.244 724.593 Q 215.447 724.441 215.704 724.162 Q 215.960 723.882 216.483 723.426 Q 217.006 722.970 217.334 722.671 "></path>
    <path id="STROKE_1b1162db-0041-4481-87eb-0f7ac90aed79" opacity="1.000" fill="none" stroke="#f7f5e9" stroke-width="3.542" stroke-opacity="1.000" stroke-linecap="round" stroke-linejoin="round" d="M 238.851 706.318 Q 238.613 706.204 239.344 706.624 Q 240.076 707.044 242.145 706.396 Q 244.214 705.748 245.491 706.001 Q 246.767 706.254 246.995 706.521 "></path>
    <path id="STROKE_e4e521bb-15da-47e2-a9c5-f4dd76720f4c" opacity="1.000" fill="none" stroke="#f7f5e9" stroke-width="4.430" stroke-opacity="1.000" stroke-linecap="round" stroke-linejoin="round" d="M 237.867 717.046 Q 237.969 716.977 237.776 717.101 Q 237.583 717.224 239.183 717.270 Q 240.783 717.315 242.262 716.771 Q 243.740 716.227 245.404 716.124 Q 247.068 716.021 247.724 715.926 "></path>
    <path id="STROKE_9186b442-f138-49aa-88f9-c372b4eb9e34" opacity="1.000" fill="none" stroke="#f7f5e9" stroke-width="3.226" stroke-opacity="1.000" stroke-linecap="round" stroke-linejoin="round" d="M 276.000 689.240 Q 275.995 690.390 275.972 690.137 Q 275.492 691.264 275.635 690.901 Q 275.013 691.738 276.109 694.819 Q 277.205 697.901 277.828 702.366 Q 278.450 706.830 278.845 710.240 Q 279.239 713.650 275.772 719.896 Q 275.559 719.919 275.415 719.726 Q 275.271 719.534 275.143 719.235 "></path>
    <path id="STROKE_21684782-d525-45f8-9eb9-ac40ecac7386" opacity="1.000" fill="none" stroke="#f7f5e9" stroke-width="3.388" stroke-opacity="1.000" stroke-linecap="round" stroke-linejoin="round" d="M 279.042 703.938 Q 279.798 703.402 280.026 703.191 Q 280.255 702.980 280.268 702.944 Q 280.282 702.908 280.389 702.799 Q 280.496 702.690 280.602 702.488 Q 280.708 702.286 280.628 701.671 Q 280.549 701.056 280.733 700.410 Q 280.916 699.765 281.114 699.637 Q 281.312 699.509 281.861 699.032 Q 282.409 698.555 283.009 698.110 Q 283.609 697.666 284.078 697.337 Q 284.547 697.008 284.976 696.710 Q 285.406 696.413 288.193 694.572 Q 290.980 692.731 293.474 690.855 Q 295.968 688.979 296.132 688.782 "></path>
    <path id="STROKE_9f0b820d-85a8-47a3-bbe8-74521bcd62dc" opacity="1.000" fill="none" stroke="#f7f5e9" stroke-width="3.750" stroke-opacity="1.000" stroke-linecap="round" stroke-linejoin="round" d="M 282.285 697.448 Q 282.951 697.130 284.222 700.010 Q 285.493 702.890 286.442 705.168 Q 287.391 707.447 291.130 717.848 Q 291.158 717.848 291.262 717.628 Q 291.367 717.408 291.504 717.046 "></path>
    <path id="STROKE_5e8a0799-d6b7-431e-b5c4-b4bf013b7c62" opacity="1.000" fill="none" stroke="#f7f5e9" stroke-width="2.289" stroke-opacity="1.000" stroke-linecap="round" stroke-linejoin="round" d="M 307.063 704.473 Q 307.797 704.896 308.562 706.063 Q 309.326 707.230 310.105 715.926 Q 310.485 716.613 309.284 714.915 Q 308.083 713.217 306.812 711.831 Q 305.540 710.444 303.934 709.873 Q 302.327 709.302 301.176 709.280 Q 300.025 709.259 299.119 709.489 Q 298.214 709.719 297.884 710.697 Q 297.554 711.674 297.712 712.447 Q 297.871 713.220 298.446 713.702 Q 299.020 714.185 298.901 714.257 Q 298.782 714.328 300.344 714.996 Q 301.907 715.664 303.491 715.684 Q 305.076 715.703 306.680 715.115 Q 308.284 714.526 308.776 714.195 "></path>
    <path id="STROKE_de46e595-9a15-495c-8c8b-28e0fadd7ace" opacity="1.000" fill="none" stroke="#f7f5e9" stroke-width="3.252" stroke-opacity="1.000" stroke-linecap="round" stroke-linejoin="round" d="M 317.393 703.086 Q 317.174 704.096 317.523 704.649 Q 317.871 705.203 318.190 705.187 Q 318.509 705.171 318.709 705.115 Q 318.910 705.059 319.562 705.509 Q 320.215 705.959 324.566 703.113 Q 328.917 700.267 329.181 699.968 "></path>
    <path id="STROKE_20b800f8-72c5-480a-8d24-add92f81715d" opacity="1.000" fill="none" stroke="#f7f5e9" stroke-width="3.334" stroke-opacity="1.000" stroke-linecap="round" stroke-linejoin="round" d="M 324.079 685.333 Q 325.210 685.281 325.147 691.158 Q 325.085 697.036 324.896 700.670 Q 324.706 704.304 324.714 706.416 Q 324.722 708.527 324.727 709.980 Q 324.732 711.433 324.735 717.708 Q 324.772 717.708 324.854 717.660 Q 324.936 717.612 325.063 717.517 "></path>
    <path id="STROKE_0dc6badc-781f-40a5-b985-11eec901e60e" opacity="1.000" fill="none" stroke="#f7f5e9" stroke-width="3.213" stroke-opacity="1.000" stroke-linecap="round" stroke-linejoin="round" d="M 335.466 685.664 Q 336.241 685.287 336.323 685.206 Q 336.323 686.749 336.323 686.364 Q 336.152 687.236 336.327 692.242 Q 336.501 697.247 336.592 700.745 Q 336.683 704.242 335.935 706.707 Q 335.188 709.171 334.726 709.986 Q 334.264 710.800 333.627 711.241 Q 332.990 711.681 332.478 711.646 Q 331.966 711.611 331.975 711.575 Q 331.983 711.539 331.959 711.552 Q 331.936 711.565 331.918 711.555 Q 331.899 711.544 331.872 711.543 Q 331.845 711.542 331.815 711.533 Q 331.786 711.525 331.784 711.669 Q 331.782 711.813 331.315 710.641 Q 330.848 709.470 330.912 709.633 Q 330.977 709.796 331.587 708.280 Q 332.198 706.764 333.678 704.117 Q 335.157 701.470 336.316 700.244 Q 337.475 699.018 338.279 698.374 Q 339.083 697.730 340.175 697.763 Q 341.267 697.795 342.081 700.092 Q 342.895 702.389 343.256 703.707 Q 343.618 705.025 343.991 708.192 Q 344.364 711.359 343.410 716.950 Q 343.042 717.293 342.848 716.873 Q 342.654 716.454 342.426 716.053 "></path>
    <path id="STROKE_815eec24-c2f4-4481-a01f-8dab34c8efdc" opacity="1.000" fill="none" stroke="#f7f5e9" stroke-width="2.588" stroke-opacity="1.000" stroke-linecap="round" stroke-linejoin="round" d="M 348.511 703.149 Q 348.526 702.943 349.661 704.258 Q 350.795 705.573 352.136 706.019 Q 353.477 706.464 355.405 705.651 Q 357.332 704.839 359.055 703.422 Q 360.777 702.006 361.028 698.676 Q 360.546 698.171 358.500 697.944 Q 356.454 697.718 354.350 698.104 Q 352.246 698.490 351.153 699.106 Q 350.061 699.722 349.449 700.062 Q 348.837 700.403 348.671 701.270 Q 348.505 702.137 348.357 703.478 Q 348.209 704.819 350.949 707.085 Q 353.688 709.351 359.457 709.161 Q 365.227 708.971 365.655 708.710 "></path>
    <path id="STROKE_2fdffd05-9d68-458e-bb9e-91e68296dc4c" opacity="1.000" fill="none" stroke="#f7f5e9" stroke-width="2.920" stroke-opacity="1.000" stroke-linecap="round" stroke-linejoin="round" d="M 366.129 701.889 Q 366.442 702.040 366.653 702.130 Q 366.864 702.219 367.433 702.430 Q 368.002 702.642 368.050 702.660 Q 368.097 702.678 368.561 702.798 Q 369.025 702.918 368.836 702.883 Q 368.648 702.848 369.370 703.006 Q 370.092 703.164 371.857 702.568 Q 373.622 701.971 376.229 699.646 Q 378.837 697.321 379.174 696.926 "></path>
    <path id="STROKE_9e612714-5ab0-4047-b6c3-5e4dc515d5e8" opacity="1.000" fill="none" stroke="#f7f5e9" stroke-width="3.731" stroke-opacity="1.000" stroke-linecap="round" stroke-linejoin="round" d="M 370.629 685.867 Q 371.064 686.236 371.366 686.867 Q 371.668 687.497 373.957 692.413 Q 376.246 697.329 381.050 712.477 Q 381.223 712.445 381.360 712.414 "></path>
    <path id="STROKE_7ce14405-e6d9-4670-ab1b-301111b23a92" opacity="1.000" fill="none" stroke="#f7f5e9" stroke-width="3.076" stroke-opacity="1.000" stroke-linecap="round" stroke-linejoin="round" d="M 382.745 706.191 Q 382.559 705.982 383.256 706.473 Q 383.953 706.965 385.313 707.410 Q 386.672 707.856 387.721 707.702 Q 388.769 707.549 389.254 707.180 Q 389.740 706.810 389.970 706.600 Q 390.200 706.389 390.679 705.831 Q 391.158 705.272 392.459 703.201 Q 393.759 701.131 394.195 695.036 Q 394.992 695.138 393.461 694.809 Q 391.930 694.480 390.143 695.169 Q 388.355 695.858 386.642 697.183 Q 384.928 698.509 383.682 700.513 Q 382.436 702.517 382.201 704.397 Q 381.965 706.277 381.837 707.766 Q 381.708 709.255 382.770 711.425 Q 383.831 713.594 385.554 714.894 Q 387.277 716.193 389.515 716.554 Q 391.754 716.916 394.108 716.345 Q 396.463 715.773 397.702 714.523 Q 398.941 713.273 399.506 712.681 "></path>
    <path id="STROKE_a9457640-eb18-45ef-84c0-af1efa29d896" opacity="1.000" fill="none" stroke="#f7f5e9" stroke-width="2.514" stroke-opacity="1.000" stroke-linecap="round" stroke-linejoin="round" d="M 206.603 746.964 Q 206.621 746.615 206.553 747.449 Q 206.485 748.283 207.204 753.233 Q 207.922 758.183 208.256 762.057 Q 208.590 765.932 208.535 771.003 Q 208.162 771.180 207.553 768.768 Q 206.945 766.355 207.090 765.314 Q 207.236 764.273 207.355 763.244 Q 207.475 762.216 207.742 762.146 Q 208.009 762.076 208.267 762.117 Q 208.524 762.159 209.042 762.018 Q 209.559 761.876 211.069 762.571 Q 212.579 763.266 214.103 764.754 Q 215.628 766.242 216.297 767.403 Q 216.967 768.563 216.669 770.106 Q 218.018 770.369 206.904 770.501 Q 206.841 770.308 206.891 769.844 Q 206.940 769.381 207.004 769.018 "></path>
    <path id="STROKE_87570623-759a-4ed0-acba-a6b7fd78263d" opacity="1.000" fill="none" stroke="#f7f5e9" stroke-width="2.949" stroke-opacity="1.000" stroke-linecap="round" stroke-linejoin="round" d="M 229.195 750.209 Q 229.627 750.340 229.773 751.811 Q 229.919 753.281 234.184 753.387 Q 238.450 753.493 238.651 753.391 "></path>
    <path id="STROKE_681d02b9-26de-4c44-9abf-6b8508af1f88" opacity="1.000" fill="none" stroke="#f7f5e9" stroke-width="4.804" stroke-opacity="1.000" stroke-linecap="round" stroke-linejoin="round" d="M 232.693 759.614 Q 232.076 759.782 230.871 763.552 Q 231.673 764.205 235.376 763.663 Q 239.079 763.120 239.707 762.922 "></path>
    <path id="STROKE_2529d112-4ee1-491f-8375-115f5fb84dbd" opacity="1.000" fill="none" stroke="#f7f5e9" stroke-width="2.986" stroke-opacity="1.000" stroke-linecap="round" stroke-linejoin="round" d="M 275.344 740.945 Q 275.888 741.001 276.412 741.580 Q 276.936 742.160 276.797 742.174 Q 276.657 742.189 276.859 742.080 Q 277.060 741.972 277.537 746.810 Q 278.014 751.647 278.390 756.919 Q 278.766 762.190 279.188 766.702 Q 279.151 766.702 278.933 766.619 Q 278.714 766.536 278.514 766.371 "></path>
    <path id="STROKE_6ed43c93-6265-4ed4-9ef8-065d025796b0" opacity="1.000" fill="none" stroke="#f7f5e9" stroke-width="3.951" stroke-opacity="1.000" stroke-linecap="round" stroke-linejoin="round" d="M 278.058 763.126 Q 278.024 763.448 278.112 762.323 Q 278.201 761.198 277.937 758.982 Q 277.673 756.766 277.461 755.321 Q 277.248 753.875 278.374 751.813 Q 279.500 749.750 282.756 746.937 Q 286.013 744.124 289.680 741.719 Q 293.348 739.313 296.587 737.763 Q 296.459 737.999 296.332 738.234 "></path>
    <path id="STROKE_602cdd72-7611-4950-bd74-af60bd1d5337" opacity="1.000" fill="none" stroke="#f7f5e9" stroke-width="2.952" stroke-opacity="1.000" stroke-linecap="round" stroke-linejoin="round" d="M 284.818 744.317 Q 284.818 744.285 284.947 744.366 Q 285.077 744.448 285.127 744.487 Q 285.177 744.526 285.493 744.907 Q 285.810 745.288 286.059 745.696 Q 286.309 746.105 286.284 746.063 Q 286.260 746.020 286.151 745.867 Q 286.042 745.714 286.415 748.722 Q 286.788 751.731 287.788 754.908 Q 288.788 758.086 289.796 760.081 Q 290.804 762.076 291.778 762.598 Q 292.752 763.120 293.089 763.253 "></path>
    <path id="STROKE_9f23a66d-ccc1-4699-bace-34aae63ff6f3" opacity="1.000" fill="none" stroke="#f7f5e9" stroke-width="2.389" stroke-opacity="1.000" stroke-linecap="round" stroke-linejoin="round" d="M 304.148 751.342 Q 304.429 751.599 305.272 753.349 Q 306.116 755.100 309.450 758.888 Q 309.330 757.726 309.204 757.826 Q 308.261 755.997 305.170 754.834 Q 302.078 753.671 300.479 753.768 Q 298.881 753.865 297.709 753.859 Q 296.538 753.854 296.356 754.625 Q 296.174 755.397 295.975 756.270 Q 295.776 757.143 296.987 758.320 Q 298.199 759.497 301.483 759.969 Q 304.767 760.440 306.858 759.862 Q 308.949 759.283 309.577 758.952 "></path>
    <path id="STROKE_cccb1783-e284-49ec-9786-207caa788b57" opacity="1.000" fill="none" stroke="#f7f5e9" stroke-width="2.901" stroke-opacity="1.000" stroke-linecap="round" stroke-linejoin="round" d="M 313.075 750.680 Q 313.165 750.508 313.419 751.527 Q 313.673 752.546 315.068 752.507 Q 316.462 752.469 317.472 752.150 Q 318.482 751.831 319.261 751.448 Q 320.040 751.066 321.559 749.515 Q 323.077 747.963 323.405 747.499 "></path>
    <path id="STROKE_f07f7ec7-b5d1-4848-8e59-fc21fdf819ab" opacity="1.000" fill="none" stroke="#f7f5e9" stroke-width="3.267" stroke-opacity="1.000" stroke-linecap="round" stroke-linejoin="round" d="M 319.707 734.060 Q 319.362 733.751 320.823 740.539 Q 322.285 747.326 322.950 764.647 Q 322.920 764.880 322.488 764.531 Q 322.057 764.182 321.820 763.788 "></path>
    <path id="STROKE_0f3f8db5-51b6-4b83-9c61-ece9b7d129bf" opacity="1.000" fill="none" stroke="#f7f5e9" stroke-width="3.679" stroke-opacity="1.000" stroke-linecap="round" stroke-linejoin="round" d="M 334.610 730.217 Q 336.187 731.331 335.885 731.215 Q 335.583 731.099 335.674 731.181 Q 335.764 731.262 335.736 731.657 Q 335.708 732.053 335.722 732.547 Q 335.736 733.041 335.637 733.376 Q 335.538 733.712 335.782 738.351 Q 336.026 742.990 335.896 746.693 Q 335.767 750.396 334.776 753.341 Q 333.785 756.285 332.184 758.974 Q 330.583 761.663 327.386 762.426 Q 327.113 762.372 327.120 760.812 Q 327.128 759.253 327.402 758.326 Q 327.676 757.398 328.837 755.930 Q 329.997 754.462 332.281 752.370 Q 334.564 750.277 336.624 749.201 Q 338.685 748.125 340.442 748.010 Q 342.199 747.895 343.141 749.470 Q 344.082 751.045 344.285 753.912 Q 344.487 756.780 344.243 758.771 Q 344.000 760.762 343.126 761.693 Q 342.253 762.623 341.952 762.922 "></path>
    <path id="STROKE_b9c20e70-34b1-4c4d-844a-b552a772405c" opacity="1.000" fill="none" stroke="#f7f5e9" stroke-width="2.945" stroke-opacity="1.000" stroke-linecap="round" stroke-linejoin="round" d="M 346.124 751.202 Q 346.534 751.309 347.077 751.529 Q 347.621 751.748 348.488 752.188 Q 349.355 752.629 350.078 753.025 Q 350.802 753.421 351.645 753.320 Q 352.488 753.219 353.357 753.419 Q 354.226 753.620 356.131 752.647 Q 358.036 751.674 359.620 750.187 Q 361.205 748.699 361.847 746.010 Q 360.787 745.484 358.526 745.459 Q 356.265 745.434 353.953 746.602 Q 351.642 747.770 350.223 748.915 Q 348.803 750.060 348.344 751.670 Q 347.884 753.279 348.061 754.272 Q 348.238 755.264 348.676 756.070 Q 349.113 756.876 350.606 757.732 Q 352.099 758.587 353.109 759.055 Q 354.119 759.523 355.452 759.576 Q 356.785 759.630 358.024 759.723 Q 359.263 759.816 360.655 759.104 Q 362.048 758.392 362.540 757.959 "></path>
    <path id="STROKE_bd39866e-d221-4d71-9fdd-fff3dc1318f0" opacity="1.000" fill="none" stroke="#f7f5e9" stroke-width="3.519" stroke-opacity="1.000" stroke-linecap="round" stroke-linejoin="round" d="M 365.983 751.469 Q 366.380 751.809 368.373 752.231 Q 370.366 752.653 372.358 752.747 Q 374.351 752.841 375.976 752.712 Q 377.602 752.582 378.666 751.249 Q 379.729 749.917 379.957 749.484 "></path>
    <path id="STROKE_a14656af-b3bf-4e27-9f06-d2bb82b16ab3" opacity="1.000" fill="none" stroke="#f7f5e9" stroke-width="3.745" stroke-opacity="1.000" stroke-linecap="round" stroke-linejoin="round" d="M 368.771 740.347 Q 370.375 740.463 370.529 742.242 Q 370.683 744.021 370.913 746.147 Q 371.143 748.272 371.486 750.172 Q 371.828 752.071 372.835 754.506 Q 373.841 756.940 375.011 758.716 Q 376.180 760.492 377.427 760.632 Q 378.673 760.772 378.973 760.670 "></path>
    <path id="STROKE_e5fbb4a9-749d-4840-b7fb-659978b07a58" opacity="1.000" fill="none" stroke="#f7f5e9" stroke-width="3.045" stroke-opacity="1.000" stroke-linecap="round" stroke-linejoin="round" d="M 383.018 756.369 Q 383.372 756.519 385.511 757.088 Q 387.650 757.657 389.757 756.948 Q 391.863 756.238 393.079 754.764 Q 394.295 753.291 394.641 751.897 Q 394.988 750.504 394.938 749.272 Q 394.888 748.040 394.322 747.167 Q 393.756 746.294 391.615 745.708 Q 389.474 745.123 387.455 745.604 Q 385.436 746.084 384.256 746.909 Q 383.077 747.735 381.751 748.903 Q 380.425 750.072 378.848 752.275 Q 377.272 754.478 376.541 756.740 Q 375.811 759.001 375.845 760.696 Q 375.879 762.390 376.419 763.722 Q 376.960 765.053 379.657 766.443 Q 382.354 767.832 385.965 768.333 Q 389.577 768.835 392.413 768.424 Q 395.249 768.013 396.462 767.058 Q 397.675 766.104 397.848 765.709 "></path>
    <path id="STROKE_9c7b8225-c13b-49e5-8acd-aae933094db7" opacity="1.000" fill="none" stroke="#f7f5e9" stroke-width="2.419" stroke-opacity="1.000" stroke-linecap="round" stroke-linejoin="round" d="M 210.776 802.843 Q 210.548 802.514 210.192 802.256 Q 209.836 801.999 209.851 802.060 Q 209.866 802.122 209.942 802.048 Q 210.018 801.975 208.277 801.575 Q 206.537 801.176 204.695 801.728 Q 202.853 802.280 201.653 803.240 Q 200.453 804.199 199.819 806.199 Q 199.186 808.199 199.260 810.449 Q 199.334 812.699 200.634 814.613 Q 201.935 816.527 203.185 817.741 Q 204.435 818.956 208.106 818.761 Q 211.778 818.566 212.306 818.267 "></path>
    <path id="STROKE_94893d4e-da96-4abc-b942-78e941753fce" opacity="1.000" fill="none" stroke="#f7f5e9" stroke-width="2.909" stroke-opacity="1.000" stroke-linecap="round" stroke-linejoin="round" d="M 231.563 798.275 Q 231.930 799.316 231.873 799.197 Q 232.352 800.444 232.194 800.186 Q 232.037 799.927 232.457 800.321 Q 232.878 800.716 233.389 800.749 Q 233.900 800.782 235.391 800.353 Q 236.881 799.924 238.130 799.430 Q 239.379 798.937 239.780 798.733 "></path>
    <path id="STROKE_85414bb2-7eca-4226-a9fd-7e975edc6c8b" opacity="1.000" fill="none" stroke="#f7f5e9" stroke-width="3.383" stroke-opacity="1.000" stroke-linecap="round" stroke-linejoin="round" d="M 234.424 809.333 Q 234.472 810.416 234.478 810.352 Q 233.858 812.769 236.473 812.521 Q 239.088 812.273 239.525 812.108 "></path>
    <path id="STROKE_4bf27e06-772a-45f1-b45e-da8ab2aee6a4" opacity="1.000" fill="none" stroke="#f7f5e9" stroke-width="3.058" stroke-opacity="1.000" stroke-linecap="round" stroke-linejoin="round" d="M 275.544 786.822 Q 275.598 787.807 275.606 788.027 Q 275.614 788.247 275.599 788.145 Q 275.599 789.172 275.599 789.169 Q 275.615 789.879 273.620 796.866 Q 271.624 803.853 271.044 812.439 L 271.071 812.439 Q 271.199 812.171 271.481 811.411 Q 271.764 810.651 272.028 810.122 "></path>
    <path id="STROKE_4e9bdf41-c46a-408d-bb17-973074444137" opacity="1.000" fill="none" stroke="#f7f5e9" stroke-width="3.110" stroke-opacity="1.000" stroke-linecap="round" stroke-linejoin="round" d="M 283.488 785.829 Q 283.966 785.760 286.166 785.829 Q 286.252 785.013 286.322 787.838 Q 286.392 790.662 285.865 803.206 Q 284.807 803.497 284.393 803.533 Q 283.979 803.569 283.542 803.696 "></path>
    <path id="STROKE_a2408400-e121-40ab-9e25-4cf3cef455fd" opacity="1.000" fill="none" stroke="#f7f5e9" stroke-width="3.609" stroke-opacity="1.000" stroke-linecap="round" stroke-linejoin="round" d="M 273.941 797.804 Q 273.793 797.624 273.893 797.799 Q 273.993 797.973 274.022 798.007 Q 274.052 798.041 274.578 798.585 Q 275.105 799.129 275.184 799.099 Q 275.264 799.069 275.395 799.065 Q 275.527 799.060 276.521 799.320 Q 277.516 799.580 281.866 800.405 Q 286.217 801.229 289.189 801.209 Q 292.160 801.189 292.561 801.253 "></path>
    <path id="STROKE_72ebb4f5-1886-4828-88ee-6a7df44d8f6f" opacity="1.000" fill="none" stroke="#f7f5e9" stroke-width="3.464" stroke-opacity="1.000" stroke-linecap="round" stroke-linejoin="round" d="M 297.862 799.331 Q 298.045 800.544 298.017 800.126 Q 298.585 801.077 298.454 800.788 Q 298.453 800.892 298.854 801.101 Q 299.254 801.310 299.710 801.508 Q 300.165 801.707 300.452 801.801 Q 300.738 801.896 301.514 802.139 Q 302.290 802.382 306.494 803.570 Q 310.698 804.759 310.962 804.956 "></path>
    <path id="STROKE_f55dae87-49c3-4f35-be39-b7d17635b0f6" opacity="1.000" fill="none" stroke="#f7f5e9" stroke-width="3.048" stroke-opacity="1.000" stroke-linecap="round" stroke-linejoin="round" d="M 285.929 800.591 Q 286.440 800.997 286.316 800.774 Q 286.192 800.551 286.357 800.920 Q 286.521 801.288 286.523 803.427 Q 286.525 805.567 286.559 806.979 Q 286.594 808.391 286.448 810.183 Q 286.302 811.974 286.202 812.171 "></path>
    <path id="STROKE_cfef84ee-fc29-45bd-bb08-5205b6f825f0" opacity="1.000" fill="none" stroke="#f7f5e9" stroke-width="3.559" stroke-opacity="1.000" stroke-linecap="round" stroke-linejoin="round" d="M 314.533 798.071 Q 314.602 797.896 316.591 798.466 Q 315.792 798.590 315.799 798.542 Q 314.456 798.529 314.750 798.552 Q 315.044 798.576 314.346 798.447 Q 313.648 798.319 313.848 798.270 Q 314.047 798.220 313.462 798.450 Q 312.877 798.680 312.614 800.154 Q 312.352 801.628 311.897 803.472 Q 311.442 805.316 310.711 807.493 Q 309.981 809.669 307.723 814.545 Q 305.466 819.420 303.964 823.314 Q 302.462 827.208 302.294 829.358 Q 302.126 831.508 301.962 831.706 "></path>
    <path id="STROKE_44321c6f-31f0-4b92-bb10-59b5abb2b5b4" opacity="1.000" fill="none" stroke="#f7f5e9" stroke-width="2.747" stroke-opacity="1.000" stroke-linecap="round" stroke-linejoin="round" d="M 318.177 808.468 Q 318.444 808.760 318.642 809.024 Q 318.841 809.289 318.814 809.263 Q 319.691 809.521 321.375 811.521 Q 323.059 813.521 323.812 815.354 Q 324.565 817.187 325.063 820.520 Q 325.134 820.698 323.364 818.279 Q 321.593 815.860 320.560 813.495 Q 319.526 811.130 319.491 809.345 Q 319.457 807.559 319.410 806.680 Q 319.364 805.800 320.172 803.370 Q 320.980 800.940 322.266 799.281 Q 323.552 797.623 324.479 796.854 Q 325.406 796.086 326.713 795.750 Q 328.021 795.415 329.280 795.780 Q 330.540 796.146 330.648 796.456 Q 330.756 796.766 330.989 797.416 Q 331.221 798.067 331.212 798.049 Q 331.203 798.031 331.200 798.800 Q 331.197 799.569 330.525 800.748 Q 329.852 801.926 327.484 803.250 Q 325.115 804.574 324.070 804.677 Q 323.026 804.779 321.995 804.587 Q 320.964 804.396 320.691 804.167 "></path>
    <path id="STROKE_bb421713-4414-431d-98b0-7e00ad22b61e" opacity="1.000" fill="none" stroke="#f7f5e9" stroke-width="2.739" stroke-opacity="1.000" stroke-linecap="round" stroke-linejoin="round" d="M 344.740 790.130 Q 345.006 790.419 345.141 790.887 Q 345.506 791.020 344.297 790.896 Q 343.088 790.773 341.820 791.489 Q 340.552 792.205 340.049 792.850 Q 339.545 793.495 339.253 794.387 Q 338.961 795.279 338.856 796.070 Q 338.750 796.861 338.996 797.658 Q 339.241 798.454 339.711 798.853 Q 340.180 799.252 340.637 799.544 Q 341.094 799.836 341.506 799.963 Q 341.917 800.091 342.040 800.156 Q 342.164 800.222 343.627 800.394 Q 345.089 800.566 346.584 800.252 Q 348.078 799.938 349.120 799.098 Q 350.162 798.257 350.844 797.360 Q 351.527 796.462 351.836 795.158 Q 352.146 793.855 351.677 792.925 Q 351.208 791.995 348.175 791.428 Q 345.142 790.862 342.983 790.867 Q 340.824 790.872 339.532 791.106 Q 338.240 791.340 337.746 792.657 Q 337.252 793.973 337.325 794.241 "></path>
    <path id="STROKE_1f06ce39-fb53-4eeb-89dc-fae2a6743b15" opacity="1.000" fill="none" stroke="#f7f5e9" stroke-width="7.417" stroke-opacity="1.000" stroke-linecap="round" stroke-linejoin="round" d="M 360.499 795.628 Q 360.757 796.784 360.727 796.385 Q 360.557 796.642 365.242 796.758 Q 369.926 796.873 372.446 795.936 Q 374.965 794.998 375.129 794.635 "></path>
    <path id="STROKE_5416f7cd-74b7-4960-8f30-8d0b1691db0f" opacity="1.000" fill="none" stroke="#f7f5e9" stroke-width="5.381" stroke-opacity="1.000" stroke-linecap="round" stroke-linejoin="round" d="M 365.127 785.625 Q 365.099 785.625 364.544 785.702 Q 364.470 786.265 365.505 791.689 Q 366.540 797.114 366.092 813.202 Q 366.851 813.354 367.264 813.078 Q 367.677 812.801 367.969 812.502 "></path>
    <path id="STROKE_ddb6daab-d956-4086-a4d8-f0a1ce136962" opacity="1.000" fill="none" stroke="#f7f5e9" stroke-width="2.768" stroke-opacity="1.000" stroke-linecap="round" stroke-linejoin="round" d="M 385.332 803.441 Q 386.101 802.690 385.655 803.072 Q 385.210 803.454 387.139 802.068 Q 389.069 800.682 390.081 799.874 Q 391.093 799.065 391.281 798.607 Q 391.468 798.149 391.767 797.296 Q 392.067 796.444 391.680 795.550 Q 391.293 794.655 389.556 794.742 Q 387.818 794.828 386.656 794.990 Q 385.495 795.150 383.651 796.628 Q 381.808 798.105 380.281 800.171 Q 378.754 802.237 378.379 804.404 Q 378.003 806.572 378.447 808.799 Q 378.890 811.027 381.135 812.359 Q 383.379 813.691 385.612 813.447 Q 387.846 813.202 388.374 812.973 "></path>
    <path id="STROKE_7ac19b85-7fbf-4f55-8a33-7406c78142e0" opacity="1.000" fill="none" stroke="#f7f5e9" stroke-width="2.599" stroke-opacity="1.000" stroke-linecap="round" stroke-linejoin="round" d="M 402.075 798.135 Q 401.899 799.083 401.847 799.000 Q 401.514 799.798 401.471 799.994 Q 401.427 800.190 401.341 800.368 Q 401.256 800.545 401.579 800.174 Q 401.902 799.804 396.846 812.769 Q 396.502 812.507 397.557 809.991 Q 398.613 807.475 400.095 804.486 Q 401.578 801.498 403.378 798.337 Q 405.177 795.177 408.279 793.935 Q 409.335 795.250 408.024 805.368 Q 406.712 815.486 406.648 815.887 "></path>
    <path id="STROKE_fb473a57-7ac2-47f2-a181-59c65ceca0fe" opacity="1.000" fill="none" stroke="#f7f5e9" stroke-width="2.346" stroke-opacity="1.000" stroke-linecap="round" stroke-linejoin="round" d="M 418.235 797.015 Q 417.811 798.117 417.743 797.906 Q 416.292 797.907 414.828 805.688 Q 415.573 808.188 429.367 795.628 Q 429.495 795.067 426.844 802.528 Q 424.193 809.989 424.065 810.517 "></path>
    <path id="STROKE_33847c0c-8a7c-4930-a415-6482ba9be2df" opacity="1.000" fill="none" stroke="#f7f5e9" stroke-width="2.744" stroke-opacity="1.000" stroke-linecap="round" stroke-linejoin="round" d="M 443.523 792.981 Q 442.515 793.887 432.337 799.694 Q 432.984 799.920 436.238 799.957 Q 439.493 799.994 441.570 800.180 Q 443.647 800.366 445.420 801.126 Q 447.193 801.885 448.176 803.242 Q 449.159 804.599 449.211 805.591 Q 449.263 806.583 449.291 807.902 Q 449.319 809.222 448.564 810.224 Q 447.809 811.226 446.993 811.470 Q 446.176 811.714 445.319 811.135 Q 444.461 810.555 444.070 810.122 "></path>
    <path id="STROKE_34db866b-3ae7-4a42-9758-35c665c10375" opacity="1.000" fill="none" stroke="#f7f5e9" stroke-width="3.061" stroke-opacity="1.000" stroke-linecap="round" stroke-linejoin="round" d="M 457.971 791.785 Q 457.889 791.928 459.824 792.570 Q 461.758 793.213 462.851 793.152 Q 463.944 793.092 464.702 792.667 Q 465.460 792.242 465.316 792.219 Q 465.173 792.196 465.202 792.297 Q 465.230 792.398 465.349 791.721 Q 465.467 791.044 465.246 789.717 Q 465.026 788.390 464.001 787.325 Q 462.976 786.260 462.167 785.717 Q 461.357 785.173 460.225 784.967 Q 459.093 784.761 458.282 784.839 Q 457.471 784.916 456.669 785.742 Q 455.866 786.568 455.674 787.010 Q 455.482 787.453 455.047 789.613 Q 454.613 791.773 454.909 793.536 Q 455.205 795.299 457.302 797.878 Q 459.399 800.457 463.715 802.561 Q 468.030 804.664 471.591 804.909 Q 475.151 805.153 475.516 805.350 "></path>
  </g>
</svg>